<svg id="Filled_cutting_stroke_ex" height="512" viewBox="0 0 512 512" width="512" xmlns="http://www.w3.org/2000/svg" data-name="Filled cutting stroke ex"><g><path d="m400 312h-288v-39.0575a20 20 0 0 1 16.712-19.7278l127.288-21.2147 127.288 21.2147a20 20 0 0 1 16.712 19.7278z" fill="#c85aed"/><path d="m296 240-40 56-40-56 8-24h64z" fill="#ffd4cf"/><path d="m293.0566 231.17-5.0566-15.17h-64l-5.1111 15.3331 20.9549 10.4774a36.1871 36.1871 0 0 0 16.0986 3.8h.001a36.1757 36.1757 0 0 0 16.2636-3.8833z" fill="#fbb8b0"/><g fill="#ffd4cf"><path d="m320 88h-128v93.459a30 30 0 0 0 16.5836 26.8328l38.4151 19.2076a20 20 0 0 0 17.98-.0458l38.5742-19.5336a30 30 0 0 0 16.4471-26.7641z"/><path d="m320 120h14a10 10 0 0 1 10 10v20a10 10 0 0 1 -10 10h-14a0 0 0 0 1 0 0v-40a0 0 0 0 1 0 0z"/><path d="m168 120h14a10 10 0 0 1 10 10v20a10 10 0 0 1 -10 10h-14a0 0 0 0 1 0 0v-40a0 0 0 0 1 0 0z" transform="matrix(-1 0 0 -1 360 280)"/></g><path d="m224 24h52a60 60 0 0 1 60 60v44a0 0 0 0 1 0 0h-52a60 60 0 0 1 -60-60v-44a0 0 0 0 1 0 0z" fill="#fa5d3f"/><path d="m224 88h-20a20 20 0 0 1 -20-20v-24a20 20 0 0 1 20-20h20z" fill="#d3463d"/><g><path d="m216 128h16v16h-16z"/><path d="m280 180h-16c0 1.41-3.0371 4-8 4s-8-2.59-8-4h-16c0 11.2148 10.542 20 24 20s24-8.7852 24-20z"/></g><g><path d="m240 488-168-24v-192l168 24z" fill="#fed672"/><path d="m66 352h16a30 30 0 0 1 30 30v12a30 30 0 0 1 -30 30h-16a10 10 0 0 1 -10-10v-52a10 10 0 0 1 10-10z" fill="#ffd4cf"/><path d="m272 488 168-24v-192l-168 24z" fill="#fed672"/><path d="m410 352h16a30 30 0 0 1 30 30v12a30 30 0 0 1 -30 30h-16a10 10 0 0 1 -10-10v-52a10 10 0 0 1 10-10z" fill="#ffd4cf" transform="matrix(-1 0 0 -1 856 776)"/><path d="m240 296h32v192h-32z" fill="#fa5d3f"/><path d="m104 336v-24l104 16v48l-104-16z" fill="#fffefa"/><path d="m408 312-103.89 16v88l103.89-16z" fill="#fffefa"/><g><path d="m216 376v-48a7.9994 7.9994 0 0 0 -6.7832-7.9067l-104-16a8 8 0 0 0 -9.2168 7.9067v24h16v-14.6753l88 13.5386v31.8218l-62.792-9.5933-2.416 15.8164 72 11a8.0006 8.0006 0 0 0 9.208-7.9082z"/><path d="m164.5 373.01h16v73.98h-16z" transform="matrix(.162 -.987 .987 .162 -260.051 513.711)"/><path d="m157.94 398.473h16v88.975h-16z" transform="matrix(.156 -.988 .988 .156 -297.527 537.556)"/><path d="m305.6807 423.8442 79.8906-16-3.1426-15.6884-70.3193 14.083v-71.3765l87.8906-13.5361v14.6738h16v-24a7.9991 7.9991 0 0 0 -9.2178-7.9067l-103.8906 16a8 8 0 0 0 -6.7822 7.9067v88a8 8 0 0 0 9.5713 7.8442z"/><path d="m303.279 432h89.443v16h-89.443z" transform="matrix(.984 -.179 .179 .984 -73.076 69.326)"/><path d="m448 344.1106v-72.1106a8.0005 8.0005 0 0 0 -9.1318-7.9194l-167.31 23.9013 28.9018-40.4619 81.5132 13.5859a11.86 11.86 0 0 1 5.2246 2.2324l9.6054-12.7959a28.0979 28.0979 0 0 0 -12.1992-5.2188l-83.0073-13.8349-3.8818-11.6449 9.4526-4.7868a37.8183 37.8183 0 0 0 20.8325-33.9012v-13.1558h6a18.0206 18.0206 0 0 0 18-18v-20a18.063 18.063 0 0 0 -8-14.96v-31.04a67.9874 67.9874 0 0 0 -9.0713-33.9526l-13.8574 7.999a51.963 51.963 0 0 1 6.9287 25.9536v36h-44a52.0589 52.0589 0 0 1 -52-52v-36h44a51.8289 51.8289 0 0 1 35.3516 13.8652l10.8808-11.73a67.7783 67.7783 0 0 0 -46.2324-18.1352h-72a28.0314 28.0314 0 0 0 -28 28v24a27.9181 27.9181 0 0 0 8.4229 20h-.4229v24h-6a18.0206 18.0206 0 0 0 -18 18v20a18.0206 18.0206 0 0 0 18 18h6v13.459a37.7925 37.7925 0 0 0 21.0059 33.9883l9.21 4.6051-3.8123 11.4364-83.0073 13.8349a28.0979 28.0979 0 0 0 -12.1992 5.2188l9.6054 12.7959a11.86 11.86 0 0 1 5.2246-2.2324l81.5134-13.586 28.9014 40.4618-167.31-23.9013a8.0005 8.0005 0 0 0 -9.1319 7.9195v72.1106a18.0262 18.0262 0 0 0 -16 17.8894v52a18.0262 18.0262 0 0 0 16 17.8894v32.1106a8 8 0 0 0 6.8691 7.9194l48 6.857 2.2618-15.8389-41.1309-5.876v-25.0615h2a38.0433 38.0433 0 0 0 38-38v-12a38.0433 38.0433 0 0 0 -38-38h-2v-62.7759l152 21.7144v175.8374l-94.8682-13.5523-2.2636 15.8389 103.8808 14.84q.2589.0406.5235.0645l.041.0035c.0366.0031.0735.0063.1106.0089.0432.0031.0866.0057.13.0081l.0749.0038c.0457.0021.0916.0039.1372.0052l.0508.0014c.061.0013.1221.0023.1831.0023h32a8.0455 8.0455 0 0 0 1.251-.0977l167.8808-23.9829a8 8 0 0 0 6.8681-7.9196v-32.1106a18.0262 18.0262 0 0 0 16-17.8894v-52a18.0262 18.0262 0 0 0 -16-17.8894zm-120-208.1106h8v14a2.0023 2.0023 0 0 1 -2 2h-6zm-144 16h-6a2.0023 2.0023 0 0 1 -2-2v-20a2.0023 2.0023 0 0 1 2-2h6zm-102 208a22.0248 22.0248 0 0 1 22 22v12a22.0248 22.0248 0 0 1 -22 22h-16a2.0023 2.0023 0 0 1 -2-2v-52a2.0023 2.0023 0 0 1 2-2zm110-292v-24a12.0134 12.0134 0 0 1 12-12h12v48h-12a12.0134 12.0134 0 0 1 -12-12zm20.1621 133.1367a21.8807 21.8807 0 0 1 -12.1621-19.6777v-85.7443a28.1182 28.1182 0 0 0 4 .2853h18.0352a68.0962 68.0962 0 0 0 61.9648 40h28v45.1558a21.8938 21.8938 0 0 1 -12.0615 19.6269l-38.5733 19.5337a12.0524 12.0524 0 0 1 -10.7881.0278zm16.5108 26.1441 14.748 7.374a28.1205 28.1205 0 0 0 25.1719-.064l14.6914-7.44 3.8379 11.5138-31.1221 43.5717-31.1221-43.5713zm203.3271 229.7807-152 21.7145v-102.776h-16v104h-16v-176h16v56h16v-57.0618l152-21.7141v62.7759h-2a38.0433 38.0433 0 0 0 -38 38v12a38.0433 38.0433 0 0 0 38 38h2zm16-43.0615a2.0023 2.0023 0 0 1 -2 2h-16a22.0248 22.0248 0 0 1 -22-22v-12a22.0248 22.0248 0 0 1 22-22h16a2.0023 2.0023 0 0 1 2 2z"/></g></g></g></svg>