<svg id="Layer_1" enable-background="new 0 0 512 512" height="512" viewBox="0 0 512 512" width="512" xmlns="http://www.w3.org/2000/svg"><g><g id="XMLID_435_"><g><g id="XMLID_1039_"><g id="XMLID_1040_"><g id="XMLID_1041_"><g id="XMLID_1042_"><g id="XMLID_1043_"><g id="XMLID_1044_"><g id="XMLID_1045_"><g id="XMLID_1046_"><g id="XMLID_1047_"><g id="XMLID_1048_"><g id="XMLID_1049_"><g id="XMLID_1050_"><g id="XMLID_1051_"><g id="XMLID_1052_"><circle cx="256" cy="256" fill="#fdb556" r="256"/></g></g></g></g></g></g></g></g></g></g></g></g></g></g></g></g><path d="m512 256c0-35.624-7.284-69.544-20.431-100.363l-63.303-63.303-344.531 56.502 77.465 77.465 2.57 187.652 97.975 97.975c138.73-3.056 250.255-116.464 250.255-255.928z" fill="#fd9126"/><g><g><path d="m398.265 147.206h30v91.478h-30z" fill="#fedd55"/></g></g><g><g><path d="m131.18 315.241c0-15.091-7.812-29.605-3.247-43.157 18.007-53.457 68.544-91.955 128.073-91.955 41.326 0 78.318 18.553 103.102 47.785 5.788 6.827 1.953 23.194 6.309 31.086 4.356 7.891 16.904 7.308 19.627 16.063 3.948 12.692 6.074 26.187 6.074 40.178 0 2.216-.053 4.42-.159 6.61-.875 18.167-14.438 26.292-21.796 41.884-6.19 13.116-5.328 34.176-15.202 44.566-24.616 25.903-59.4 42.052-97.955 42.052-59.529 0-110.066-38.498-128.073-91.955-4.565-13.553 3.247-28.066 3.247-43.157z" fill="#238cf8"/><path d="m391.114 315.241c0 2.212-.046 4.423-.158 6.607-.873 18.166-14.44 26.297-21.79 41.889-6.198 13.111-5.334 34.177-15.202 44.565-24.03 25.266-57.723 41.258-95.152 42.02v-270.162c40.189.818 76.076 19.179 100.291 47.753 5.789 6.83 1.961 23.193 6.309 31.082 4.358 7.898 16.912 7.313 19.635 16.066 3.939 12.693 6.067 26.186 6.067 40.18z" fill="#0768dd"/><path d="m338.26 321.85c-11.76 0-21.383 9.622-21.383 21.382v7.136c0 2.836.564 5.546 1.578 8.028h-19.543c-11.76 0-21.383 9.622-21.383 21.383v7.136c0 11.76 9.622 21.383 21.383 21.383h55.045c21.611-22.741 35.384-52.999 36.996-86.448z" fill="#54c9fc"/><path d="m289.864 249.302v7.136c0 11.76 9.622 21.383 21.383 21.383h74.617c-5.348-18.591-14.582-35.534-26.764-49.902h-47.853c-11.761.001-21.383 9.623-21.383 21.383z" fill="#54c9fc"/><path d="m186.43 337.014v-7.136c0-2.785-.545-5.447-1.525-7.892h19.732c11.76 0 21.383-9.622 21.383-21.383v-7.136c0-11.76-9.622-21.383-21.383-21.383h-76.702c-4.565 13.552-7.041 28.065-7.041 43.156s2.476 29.604 7.041 43.156h37.112c11.761.001 21.383-9.621 21.383-21.382z" fill="#5eefee"/></g><path d="m144.664 145.853h222.672v92.83h-222.672z" fill="#57555c"/><path d="m256 145.85h111.34v92.83h-111.34z" fill="#48464c"/><g><path d="m83.735 92.333h344.531v56.502h-344.531z" fill="#8e8382"/><path d="m256 92.333h172.265v56.502h-172.265z" fill="#776d6b"/></g></g></g></svg>